# xmcd
#
# Track frame offsets:
#	150
#	17949
#	32980
#	53241
#	73514
#	88539
#	108416
#	126812
#	140338
#	153431
#
# Disc length: 2231 seconds
#
# Revision: 1
# Processed by: cddbd v1.5.2PL0 Copyright (c) Steve Scherf et al.
# Submitted via: audiograbber 1.80
#
DISCID=8508b50a
DTITLE=Noonday Blue - NoonDay Blue
DYEAR=1900
DGENRE=
TTITLE0=Grandma Caroline
TTITLE1=Almost Living without you
TTITLE2=One More at the Table
TTITLE3=Let Go
TTITLE4=Dreams in the Day
TTITLE5=Just Feels Right
TTITLE6=Angel Girl
TTITLE7=Personal Best
TTITLE8=You're Gone
TTITLE9=Love Turned Me to a Rolling Stone
EXTD=
EXTT0=
EXTT1=
EXTT2=
EXTT3=
EXTT4=
EXTT5=
EXTT6=
EXTT7=
EXTT8=
EXTT9=
PLAYORDER=
